<svg xmlns="http://www.w3.org/2000/svg" xmlns:xlink="http://www.w3.org/1999/xlink" viewBox="0 0 95.481 95.481" height="95.481" width="95.481" data-background-color="#ffffff" preserveAspectRatio="xMidYMid meet" id="tight-bounds"><g><svg viewBox="0 0 95.481 95.481" height="95.481" width="95.481"><g><svg viewBox="0 0 95.481 95.481" height="95.481" width="95.481"><g><svg viewBox="0 0 95.481 95.481" height="95.481" width="95.481"><g><svg viewBox="0 0 95.481 95.481" height="95.481" width="95.481"><g><svg viewBox="0 0 95.481 95.481" height="95.481" width="95.481"><g><svg xmlns="http://www.w3.org/2000/svg" xmlns:xlink="http://www.w3.org/1999/xlink" version="1.1" x="0" y="0" viewBox="0 0 512 512" enable-background="new 0 0 512 512" xml:space="preserve" height="95.481" width="95.481" class="icon-icon-0" data-fill-palette-color="accent" id="icon-0"><path d="M256 0C114.625 0 0 114.625 0 256s114.625 256 256 256 256-114.625 256-256S397.375 0 256 0zM256 480C132.5 480 32 379.5 32 256S132.5 32 256 32s224 100.5 224 224S379.5 480 256 480zM335.563 265.844c6.094 10.313 9.156 22.344 9.156 36.125 0 21.156-6.313 38.781-18.906 52.875-12.594 14.125-30.781 22.438-54.563 24.938V416h-30.313v-36.031c-39.656-4.063-64.188-27.125-73.656-69.125l46.875-12.219c4.344 26.406 18.719 39.594 43.125 39.594 11.406 0 19.844-2.813 25.219-8.469s8.063-12.469 8.063-20.469c0-8.281-2.688-14.563-8.063-18.813-5.375-4.281-17.344-9.688-35.875-16.25-16.656-5.781-29.688-11.469-39.063-17.156-9.375-5.625-17-13.531-22.844-23.688-5.844-10.188-8.781-22.063-8.781-35.563 0-17.719 5.25-33.688 15.688-47.875 10.438-14.156 26.875-22.813 49.313-25.969V96h30.313v27.969c33.875 4.063 55.813 23.219 65.781 57.5l-41.75 17.125c-8.156-23.5-20.719-35.25-37.781-35.25-8.563 0-15.438 2.625-20.594 7.875-5.188 5.25-7.781 11.625-7.781 19.094 0 7.625 2.5 13.469 7.5 17.563 4.969 4.063 15.688 9.094 32.063 15.125 18 6.563 32.125 12.781 42.344 18.625C321.281 247.469 329.438 255.563 335.563 265.844z" fill="#1da57a" data-fill-palette-color="accent"/></svg></g></svg></g></svg></g></svg></g></svg></g></svg></g><defs/></svg>